# xmcd
#
# Track frame offsets:
#	150
#	15542
#	27956
#	43629
#	59320
#	74180
#	92671
#	107931
#	121762
#	136396
#	156422
#	171384
#	185326
#	196276
#	209214
#	221071
#	237171
#	251905
#	268404
#	285194
#	302287
#	320226
#	334681
#	350690
#
# Disc length: 4900 seconds
# Revision: 0
# Processed by: cddbd v1.5.2PL0 Copyright (c) Steve Scherf et al.
# Submitted via: dBpowerAMP V12.0
#
DISCID=7d132218
DTITLE=Nic Pizzolatto - Galveston 6
DYEAR=2014
DGENRE=Hörbuch
TTITLE0=120
TTITLE1=121
TTITLE2=122
TTITLE3=123
TTITLE4=124
TTITLE5=125
TTITLE6=126
TTITLE7=127
TTITLE8=128
TTITLE9=129
TTITLE10=130
TTITLE11=131
TTITLE12=132
TTITLE13=133
TTITLE14=134
TTITLE15=135
TTITLE16=136
TTITLE17=137
TTITLE18=138
TTITLE19=139
TTITLE20=140
TTITLE21=141
TTITLE22=142
TTITLE23=143
EXTD=
EXTT0=
EXTT1=
EXTT2=
EXTT3=
EXTT4=
EXTT5=
EXTT6=
EXTT7=
EXTT8=
EXTT9=
EXTT10=
EXTT11=
EXTT12=
EXTT13=
EXTT14=
EXTT15=
EXTT16=
EXTT17=
EXTT18=
EXTT19=
EXTT20=
EXTT21=
EXTT22=
EXTT23=
PLAYORDER=
